# xmcd
#
# Track frame offsets: 
#        150
#        65210
#        99497
#        174077
#        232725
#
# Disc length: 3982 seconds
#
# Revision: 1
# Processed by: cddbd v1.5.2PL0 Copyright (c) Steve Scherf et al.
# Submitted via: ExactAudioCopy v0.99pb3
#
DISCID=340f8c05
DTITLE=Robert Julian Horky - The cosmic dance of tao
DYEAR=1995
DGENRE=New Age
TTITLE0=wood
TTITLE1=fire
TTITLE2=earth
TTITLE3=metal
TTITLE4=water
EXTD=YEAR: 1995
EXTT0=
EXTT1=
EXTT2=
EXTT3=
EXTT4=
PLAYORDER=
